# Blender v2.82 (sub 7) OBJ File: ''
# www.blender.org
mtllib Rocketman.mtl
o Cube_Cube.001
v -1.000000 -1.000000 1.000000
v -1.000000 3.450389 1.000000
v -1.000000 -1.000000 -1.000000
v -1.000000 3.450389 -1.000000
v 1.000000 -1.000000 1.000000
v 1.000000 3.450389 1.000000
v 1.000000 -1.000000 -1.000000
v 1.000000 3.450389 -1.000000
v -1.298514 0.453478 0.071114
v -1.298514 0.453478 -0.071114
v 1.298514 0.453478 -0.071114
v 1.298514 0.453478 0.071114
v 1.000000 0.453478 1.000000
v 1.000000 0.453478 -1.000000
v -1.000000 0.453478 -1.000000
v -1.000000 0.453478 1.000000
v 0.000000 -1.000000 0.000000
v -1.298514 -1.000000 0.071114
v -1.298514 -1.000000 -0.071114
v -1.246672 -1.000000 0.000000
v -1.298514 3.450389 -0.071114
v -1.298514 3.450389 0.071114
v 1.298514 -1.000000 -0.071114
v 1.298514 -1.000000 0.071114
v 1.246672 -1.000000 0.000000
v 1.298514 3.450389 0.071114
v 1.298514 3.450389 -0.071114
v -0.071114 -1.000000 -1.298514
v 0.071114 -1.000000 -1.298514
v 0.000000 -1.000000 -1.246672
v 0.071114 3.450389 -1.298514
v -0.071114 3.450389 -1.298514
v 0.071114 -1.000000 1.298514
v -0.071114 -1.000000 1.298514
v 0.000000 -1.000000 1.246672
v -0.071114 3.450389 1.298514
v 0.071114 3.450389 1.298514
v -0.071114 0.453478 1.298514
v 0.071114 0.453478 1.298514
v 0.071114 0.453478 -1.298514
v -0.071114 0.453478 -1.298514
v -0.111056 -0.154742 2.027857
v 0.111056 -0.154742 2.027857
v 0.111056 -1.608220 2.027857
v 2.027857 -0.154742 0.111056
v 2.027857 -0.154742 -0.111056
v -2.027857 -0.154742 -0.111056
v -2.027857 -0.154742 0.111056
v 0.111056 -0.154742 -2.027857
v -0.111056 -0.154742 -2.027857
v 2.027857 -1.608220 -0.111056
v -0.111056 -1.608220 -2.027857
v -2.027857 -1.608220 0.111056
v -2.027857 -1.608220 -0.111056
v 2.027857 -1.608220 0.111056
v 0.111056 -1.608220 -2.027857
v -0.111056 -1.608220 2.027857
v -1.248990 3.450389 1.248990
v -1.248990 3.450389 -1.248990
v 1.248990 3.450389 1.248990
v 1.248990 3.450389 -1.248990
v -1.621832 3.450389 -0.088820
v -1.621832 3.450389 0.088820
v 1.621832 3.450389 0.088820
v 1.621832 3.450389 -0.088820
v 0.088820 3.450389 -1.621832
v -0.088820 3.450389 -1.621832
v -0.088820 3.450389 1.621832
v 0.088820 3.450389 1.621832
v 0.000000 5.993721 0.000000
vt 0.447238 0.617697
vt 0.447238 0.763957
vt 0.400890 0.763289
vt 0.400890 0.617028
vt 0.351850 0.255586
vt 0.351850 0.109168
vt 0.396713 0.110075
vt 0.396713 0.256493
vt 0.780006 0.862301
vt 0.776571 0.859764
vt 0.776571 0.812004
vt 0.814872 0.784180
vt 0.818908 0.785531
vt 0.837331 0.843630
vt 0.589906 0.326598
vt 0.589906 0.180180
vt 0.596776 0.180180
vt 0.596776 0.326598
vt 0.093162 0.487831
vt 0.093162 0.634250
vt 0.048298 0.635156
vt 0.048298 0.488738
vt 0.144895 0.488738
vt 0.144895 0.635156
vt 0.100031 0.634250
vt 0.100031 0.487831
vt 0.821412 0.782050
vt 0.868535 0.782050
vt 0.895988 0.820868
vt 0.894655 0.824959
vt 0.806126 0.905210
vt 0.778673 0.866392
vt 0.855753 0.901729
vt 0.853249 0.905210
vt 0.641639 0.181087
vt 0.641639 0.327505
vt 0.394078 0.617098
vt 0.394078 0.763358
vt 0.351447 0.764934
vt 0.351447 0.618674
vt 0.403583 0.256493
vt 0.403583 0.110075
vt 0.448446 0.109168
vt 0.448446 0.255586
vt 0.545043 0.327505
vt 0.545043 0.181087
vt 0.859789 0.903080
vt 0.898090 0.827497
vt 0.718686 0.301648
vt 0.725555 0.301648
vt 0.727484 0.337350
vt 0.716757 0.337350
vt 0.925300 0.151272
vt 0.925300 0.080261
vt 0.960526 0.050424
vt 0.960526 0.121436
vt 0.697231 0.301648
vt 0.704100 0.301648
vt 0.706029 0.337350
vt 0.695301 0.337350
vt 0.282304 0.463026
vt 0.275492 0.462917
vt 0.269865 0.430355
vt 0.280502 0.430524
vt 0.898090 0.875257
vt 0.589906 0.109168
vt 0.545043 0.110075
vt 0.403583 0.327505
vt 0.448446 0.326598
vt 0.394078 0.546163
vt 0.351447 0.547739
vt 0.641639 0.110075
vt 0.596776 0.109168
vt 0.144895 0.417727
vt 0.100031 0.416820
vt 0.093162 0.416820
vt 0.048298 0.417727
vt 0.351850 0.326598
vt 0.396713 0.327505
vt 0.447238 0.546762
vt 0.400890 0.546093
vt 0.146268 0.866807
vt 0.146268 0.795796
vt 0.156995 0.795796
vt 0.156995 0.866807
vt 0.271667 0.359443
vt 0.282304 0.359612
vt 0.279737 0.598219
vt 0.279737 0.669231
vt 0.269009 0.669231
vt 0.269009 0.598219
vt 0.279737 0.804103
vt 0.279737 0.875115
vt 0.269009 0.875115
vt 0.269009 0.804103
vt 0.960459 0.281380
vt 0.960459 0.352315
vt 0.925278 0.322838
vt 0.925278 0.251903
vt 0.270938 0.566288
vt 0.277807 0.566288
vt 0.088065 0.895597
vt 0.088065 0.824585
vt 0.123291 0.794749
vt 0.123291 0.865760
vt 0.210806 0.630784
vt 0.210806 0.559772
vt 0.246032 0.589609
vt 0.246032 0.660621
vt 0.052839 0.824585
vt 0.052839 0.895597
vt 0.017613 0.865760
vt 0.017613 0.794749
vt 0.270938 0.772173
vt 0.277807 0.772173
vt 0.210806 0.458924
vt 0.210806 0.387912
vt 0.246032 0.358076
vt 0.246032 0.429087
vt 0.718686 0.373051
vt 0.725555 0.373051
vt 0.727484 0.408753
vt 0.716757 0.408753
vt 0.210806 0.832481
vt 0.210806 0.761469
vt 0.246032 0.791306
vt 0.246032 0.862317
vt 0.155066 0.898738
vt 0.148197 0.898738
vt 0.704100 0.408753
vt 0.697231 0.408753
vt 0.695301 0.373051
vt 0.706029 0.373051
vt 0.947975 0.588360
vt 0.947975 0.517425
vt 0.982658 0.487235
vt 0.982658 0.558170
vt 0.135857 0.092246
vt 0.129317 0.094376
vt 0.123725 0.079573
vt 0.131894 0.076913
vt 0.091016 0.169959
vt 0.093118 0.176588
vt 0.078513 0.182255
vt 0.075888 0.173976
vt 0.210433 0.131064
vt 0.182981 0.092246
vt 0.190750 0.076913
vt 0.225038 0.125397
vt 0.212535 0.137692
vt 0.227663 0.133675
vt 0.120571 0.215406
vt 0.167694 0.215406
vt 0.171658 0.230739
vt 0.112801 0.230739
vt 0.091016 0.122199
vt 0.075888 0.114325
vt 0.174234 0.213276
vt 0.212535 0.185452
vt 0.227663 0.193327
vt 0.179826 0.228078
vt 0.817405 0.534816
vt 0.825148 0.531069
vt 0.876195 0.649521
vt 0.876195 0.507622
vt 0.598878 0.815057
vt 0.606725 0.811722
vt 0.660642 0.930117
vt 0.767321 0.560307
vt 0.550303 0.837247
vt 0.658446 0.649521
vt 0.607398 0.626073
vt 0.658446 0.507622
vt 0.794460 0.098143
vt 0.802202 0.094397
vt 0.853250 0.212848
vt 0.853250 0.070949
vt 0.660642 0.790352
vt 0.599655 0.622327
vt 0.744375 0.123634
vt 0.549571 0.596836
vn -0.9520 0.0000 0.3060
vn 0.3060 0.0000 0.9520
vn 0.0000 -1.0000 0.0000
vn 0.0000 0.0000 -1.0000
vn 0.9520 0.0000 0.3060
vn 0.9520 0.0000 -0.3060
vn -0.3060 0.0000 -0.9520
vn -0.9520 0.0000 -0.3060
vn -0.3060 0.0000 0.9520
vn 0.3060 0.0000 -0.9520
vn 0.6405 -0.7680 0.0000
vn 0.9985 0.0000 0.0547
vn -0.6405 -0.7680 0.0000
vn -0.6405 0.7680 0.0000
vn 0.0000 0.0000 1.0000
vn -1.0000 0.0000 0.0000
vn 1.0000 0.0000 0.0000
vn -0.9985 0.0000 0.0547
vn 0.0000 0.7680 0.6405
vn -0.0547 0.0000 0.9985
vn 0.0547 0.0000 0.9985
vn 0.9985 0.0000 -0.0547
vn 0.0000 0.7680 -0.6405
vn 0.0547 0.0000 -0.9985
vn 0.0000 -0.7680 -0.6405
vn -0.0547 0.0000 -0.9985
vn 0.6405 0.7680 0.0000
vn 0.0000 -0.7680 0.6405
vn -0.9985 0.0000 -0.0547
vn 0.0000 0.5377 0.8432
vn 0.2603 0.5256 0.8099
vn -0.8432 0.5377 0.0000
vn -0.2603 0.5256 0.8099
vn -0.8099 0.5256 -0.2603
vn 0.2603 0.5256 -0.8099
vn 0.8432 0.5377 0.0000
vn 0.8099 0.5256 -0.2603
vn -0.8099 0.5256 0.2603
vn 0.0000 0.5377 -0.8432
vn 0.8099 0.5256 0.2603
vn -0.2603 0.5256 -0.8099
usemtl Material.001
s off
f 16/1/1 2/2/1 22/3/1 9/4/1
f 13/5/2 6/6/2 37/7/2 39/8/2
f 30/9/3 29/10/3 7/11/3 23/12/3 25/13/3 17/14/3
f 31/15/4 40/16/4 41/17/4 32/18/4
f 12/19/5 26/20/5 6/21/5 13/22/5
f 14/23/6 8/24/6 27/25/6 11/26/6
f 17/14/3 25/13/3 24/27/3 5/28/3 33/29/3 35/30/3
f 3/31/3 28/32/3 30/9/3 17/14/3 20/33/3 19/34/3
f 15/35/7 4/36/7 32/18/7 41/17/7
f 10/37/8 21/38/8 4/39/8 15/40/8
f 38/41/9 36/42/9 2/43/9 16/44/9
f 40/16/10 31/15/10 8/45/10 14/46/10
f 18/47/3 19/34/3 20/33/3
f 23/12/3 24/27/3 25/13/3
f 28/32/3 29/10/3 30/9/3
f 33/29/3 34/48/3 35/30/3
f 19/49/11 18/50/11 53/51/11 54/52/11
f 40/53/12 29/54/12 56/55/12 49/56/12
f 24/57/13 23/58/13 51/59/13 55/60/13
f 9/61/14 10/62/14 47/63/14 48/64/14
f 18/47/3 20/33/3 17/14/3 35/30/3 34/48/3 1/65/3
f 36/42/15 38/41/15 39/8/15 37/7/15
f 21/38/16 10/37/16 9/4/16 22/3/16
f 26/20/17 12/19/17 11/26/17 27/25/17
f 29/66/10 40/16/10 14/46/10 7/67/10
f 34/68/9 38/41/9 16/44/9 1/69/9
f 19/70/8 10/37/8 15/40/8 3/71/8
f 3/72/7 15/35/7 41/17/7 28/73/7
f 7/74/6 14/23/6 11/26/6 23/75/6
f 24/76/5 12/19/5 13/22/5 5/77/5
f 5/78/2 13/5/2 39/8/2 33/79/2
f 1/80/1 16/1/1 9/4/1 18/81/1
f 45/82/17 55/83/17 51/84/17 46/85/17
f 47/63/16 54/86/16 53/87/16 48/64/16
f 42/88/15 57/89/15 44/90/15 43/91/15
f 49/92/4 56/93/4 52/94/4 50/95/4
f 28/96/18 41/97/18 50/98/18 52/99/18
f 39/100/19 38/101/19 42/88/19 43/91/19
f 12/102/20 24/103/20 55/104/20 45/105/20
f 18/106/21 9/107/21 48/108/21 53/109/21
f 33/110/22 39/111/22 43/112/22 44/113/22
f 41/114/23 40/115/23 49/92/23 50/95/23
f 10/116/24 19/117/24 54/118/24 47/119/24
f 34/120/25 33/121/25 44/122/25 57/123/25
f 23/124/26 11/125/26 46/126/26 51/127/26
f 11/128/27 12/129/27 45/82/27 46/85/27
f 29/130/28 28/131/28 52/132/28 56/133/28
f 38/134/29 34/135/29 57/136/29 42/137/29
f 26/138/3 27/139/3 65/140/3 64/141/3
f 31/142/3 32/143/3 67/144/3 66/145/3
f 37/146/3 6/147/3 60/148/3 69/149/3
f 36/150/3 37/146/3 69/149/3 68/151/3
f 4/152/3 21/153/3 62/154/3 59/155/3
f 27/139/3 8/156/3 61/157/3 65/140/3
f 8/156/3 31/142/3 66/145/3 61/157/3
f 32/143/3 4/152/3 59/155/3 67/144/3
f 6/147/3 26/138/3 64/141/3 60/148/3
f 22/158/3 2/159/3 58/160/3 63/161/3
f 21/153/3 22/158/3 63/161/3 62/154/3
f 2/159/3 36/150/3 68/151/3 58/160/3
f 68/162/30 69/163/30 70/164/30
f 69/163/31 60/165/31 70/164/31
f 62/166/32 63/167/32 70/168/32
f 58/169/33 68/162/33 70/164/33
f 59/170/34 62/166/34 70/168/34
f 61/171/35 66/172/35 70/173/35
f 64/174/36 65/175/36 70/176/36
f 65/175/37 61/177/37 70/176/37
f 63/167/38 58/178/38 70/168/38
f 66/172/39 67/179/39 70/173/39
f 60/180/40 64/174/40 70/176/40
f 67/179/41 59/181/41 70/173/41
